<svg width="341" height="320" viewBox="0 0 341 320" fill="none" xmlns="http://www.w3.org/2000/svg">
<rect x="10" width="320" height="320" rx="5" fill="#14151D"/>
<path d="M84.0445 185.863H43.3023V152.641H84.0445C89.6956 152.641 94.2984 151.365 97.8531 148.812C101.499 146.26 104.142 142.751 105.783 138.285C107.423 133.728 108.244 128.624 108.244 122.973C108.244 117.23 107.378 111.898 105.646 106.977C104.005 101.964 101.408 97.9076 97.8531 94.8086C94.3896 91.7096 89.7867 90.1602 84.0445 90.1602H56.1539V256H16.232V56.9375H84.0445C97.443 56.9375 108.973 59.763 118.634 65.4141C128.296 71.0651 135.679 78.8581 140.783 88.793C145.978 98.6367 148.576 109.939 148.576 122.699C148.576 135.551 145.978 146.716 140.783 156.195C135.679 165.583 128.296 172.875 118.634 178.07C108.973 183.266 97.443 185.863 84.0445 185.863ZM158.791 56.9375H193.928L234.534 193.109L275.002 56.9375H306.037L249.436 256H219.495L158.791 56.9375ZM144.573 56.9375H178.069L183.264 188.188V256H144.573V56.9375ZM290.725 56.9375H324.358V256H285.803V188.188L290.725 56.9375Z" fill="#6C72CB"/>
</svg>
