<?xml version="1.0" encoding="UTF-8" standalone="no"?>
<svg
   xmlns:dc="http://purl.org/dc/elements/1.1/"
   xmlns:cc="http://creativecommons.org/ns#"
   xmlns:rdf="http://www.w3.org/1999/02/22-rdf-syntax-ns#"
   xmlns:svg="http://www.w3.org/2000/svg"
   xmlns="http://www.w3.org/2000/svg"
   xmlns:sodipodi="http://sodipodi.sourceforge.net/DTD/sodipodi-0.dtd"
   xmlns:inkscape="http://www.inkscape.org/namespaces/inkscape"
   inkscape:version="1.0 (6e3e5246a0, 2020-05-07)"
   sodipodi:docname="icons8-github (2).svg"
   id="svg4"
   version="1.1"
   height="64px"
   width="64px"
   viewBox="0 0 32 32"
   fill="#000000">
  <metadata
     id="metadata10">
    <rdf:RDF>
      <cc:Work
         rdf:about="">
        <dc:format>image/svg+xml</dc:format>
        <dc:type
           rdf:resource="http://purl.org/dc/dcmitype/StillImage" />
      </cc:Work>
    </rdf:RDF>
  </metadata>
  <defs
     id="defs8" />
  <sodipodi:namedview
     inkscape:current-layer="svg4"
     inkscape:window-maximized="0"
     inkscape:window-y="0"
     inkscape:window-x="0"
     inkscape:cy="19.890435"
     inkscape:cx="32"
     inkscape:zoom="3.908362"
     showgrid="false"
     id="namedview6"
     inkscape:window-height="480"
     inkscape:window-width="986"
     inkscape:pageshadow="2"
     inkscape:pageopacity="0"
     guidetolerance="10"
     gridtolerance="10"
     objecttolerance="10"
     borderopacity="1"
     bordercolor="#666666"
     pagecolor="#ffffff" />
  <path
     style="fill:#ffffff;stroke-width:1.34224"
     id="path2"
     d="m 16.00434,0.1333749 c -8.8164229,0 -15.95996012,7.2756516 -15.95996012,16.2551281 0,7.180405 4.57186352,13.276079 10.91532412,15.424381 0.800076,0.148158 1.091013,-0.349233 1.091013,-0.783125 0,-0.386271 -0.01558,-1.407509 -0.02079,-2.762102 -4.4419759,0.978905 -5.3771303,-2.18005 -5.3771303,-2.18005 -0.7273419,-1.878441 -1.7715968,-2.381123 -1.7715968,-2.381123 -1.4494888,-1.005363 0.109101,-0.984197 0.109101,-0.984197 1.6001522,0.116412 2.4417917,1.672077 2.4417917,1.672077 1.4235111,2.48695 3.7354194,1.767323 4.6445964,1.354594 0.145469,-1.052983 0.561092,-1.76732 1.013084,-2.174757 -3.5431945,-0.407437 -7.2682242,-1.804362 -7.2682242,-8.032319 0,-1.777905 0.6234359,-3.227743 1.6417146,-4.365391 C 7.302213,10.769054 6.7515117,9.112851 7.619127,6.8745972 c 0,0 1.3403871,-0.4338941 4.390027,1.6667845 1.272849,-0.359814 2.639213,-0.5397204 3.995186,-0.5450114 1.355972,0.00529 2.722336,0.1851974 3.995185,0.5450114 3.04964,-2.1006786 4.384833,-1.6667845 4.384833,-1.6667845 0.872809,2.2382538 0.327303,3.8944568 0.161054,4.3018938 1.023473,1.137648 1.63652,2.587486 1.63652,4.365391 0,6.243831 -3.730226,7.614299 -7.283811,8.021735 0.571483,0.497391 1.080623,1.49217 1.080623,3.005505 0,2.174759 -0.01558,3.926207 -0.01558,4.460637 0,0.433892 0.285741,0.941865 1.096207,0.783125 6.338266,-2.153594 10.904934,-8.243976 10.904934,-15.424381 0,-8.9794765 -7.143537,-16.2551281 -15.95996,-16.2551281 z"
     fill-rule="evenodd" />
</svg>
