<svg width="49" height="49" viewBox="0 0 49 49" fill="none" xmlns="http://www.w3.org/2000/svg">
<path fill-rule="evenodd" clip-rule="evenodd" d="M2.04169 5.79434C2.04169 4.79909 2.43705 3.84461 3.14079 3.14086C3.84454 2.43711 4.79902 2.04175 5.79427 2.04175H43.2017C43.6949 2.04095 44.1834 2.13743 44.6393 2.32568C45.0952 2.51393 45.5095 2.79025 45.8584 3.13881C46.2074 3.48738 46.4841 3.90135 46.6729 4.35702C46.8616 4.8127 46.9586 5.30112 46.9584 5.79434V43.2018C46.9589 43.6951 46.8622 44.1836 46.6737 44.6395C46.4852 45.0954 46.2087 45.5097 45.86 45.8586C45.5112 46.2075 45.0971 46.4842 44.6413 46.673C44.1856 46.8617 43.697 46.9587 43.2037 46.9584H5.79427C5.3013 46.9584 4.81317 46.8613 4.35775 46.6726C3.90233 46.4839 3.48856 46.2073 3.14007 45.8586C2.79159 45.5099 2.51521 45.096 2.32675 44.6405C2.13828 44.185 2.04142 43.6968 2.04169 43.2038V5.79434ZM19.8205 19.1673H25.9026V22.2216C26.7806 20.4658 29.0264 18.8855 32.4013 18.8855C38.8713 18.8855 40.4046 22.3829 40.4046 28.7998V40.6864H33.857V30.2617C33.857 26.6071 32.9791 24.545 30.7496 24.545C27.6564 24.545 26.3702 26.7684 26.3702 30.2617V40.6864H19.8205V19.1673ZM8.59135 40.4067H15.141V18.8855H8.59135V40.4047V40.4067ZM16.0781 11.8663C16.0905 12.427 15.9907 12.9847 15.7846 13.5064C15.5786 14.0281 15.2704 14.5033 14.8781 14.9043C14.4859 15.3053 14.0175 15.6239 13.5005 15.8414C12.9834 16.0589 12.4281 16.1709 11.8672 16.1709C11.3063 16.1709 10.751 16.0589 10.234 15.8414C9.71693 15.6239 9.24854 15.3053 8.8563 14.9043C8.46405 14.5033 8.15585 14.0281 7.94978 13.5064C7.74371 12.9847 7.64392 12.427 7.65627 11.8663C7.68051 10.7655 8.13481 9.71799 8.92187 8.94807C9.70893 8.17815 10.7662 7.74702 11.8672 7.74702C12.9682 7.74702 14.0255 8.17815 14.8125 8.94807C15.5996 9.71799 16.0539 10.7655 16.0781 11.8663Z" fill="white"/>
</svg>
