<svg width="18" height="14" viewBox="0 0 18 14" fill="none" xmlns="http://www.w3.org/2000/svg">
<path d="M17.125 0.125H0.875C0.529297 0.125 0.25 0.404297 0.25 0.75V13.25C0.25 13.5957 0.529297 13.875 0.875 13.875H17.125C17.4707 13.875 17.75 13.5957 17.75 13.25V0.75C17.75 0.404297 17.4707 0.125 17.125 0.125ZM15.5469 2.25195L9.38477 7.04688C9.23242 7.16602 9.01953 7.16602 8.86719 7.04688L2.70312 2.25195C2.67989 2.23402 2.66285 2.20927 2.65438 2.18116C2.64592 2.15306 2.64647 2.12301 2.65594 2.09523C2.66542 2.06745 2.68335 2.04333 2.70722 2.02625C2.73109 2.00918 2.75971 2 2.78906 2H15.4609C15.4903 2 15.5189 2.00918 15.5428 2.02625C15.5667 2.04333 15.5846 2.06745 15.5941 2.09523C15.6035 2.12301 15.6041 2.15306 15.5956 2.18116C15.5872 2.20927 15.5701 2.23402 15.5469 2.25195Z" fill="white"/>
</svg>
