<svg width="50" height="49" viewBox="0 0 50 49" fill="none" xmlns="http://www.w3.org/2000/svg">
<path d="M47.9794 13.2851C47.702 12.2953 47.1615 11.3993 46.4155 10.6922C45.6484 9.96329 44.7083 9.44192 43.6838 9.17724C39.8495 8.16662 24.488 8.16662 24.488 8.16662C18.084 8.09376 11.6815 8.41422 5.31675 9.1262C4.29222 9.41043 3.35382 9.94345 2.585 10.6779C1.82959 11.4047 1.28242 12.301 0.996586 13.283C0.30996 16.982 -0.0236508 20.7379 0.000253002 24.5C-0.024247 28.2587 0.308545 32.0133 0.996586 35.7169C1.27629 36.6948 1.82142 37.587 2.57888 38.3077C3.33634 39.0285 4.27959 39.5491 5.31675 39.8247C9.20205 40.8333 24.488 40.8333 24.488 40.8333C30.9002 40.9062 37.3108 40.5858 43.6838 39.8737C44.7083 39.609 45.6484 39.0877 46.4155 38.3588C47.1709 37.6381 47.7079 36.7418 47.9774 35.7659C48.6819 32.0683 49.0245 28.3109 49.0003 24.5469C49.0532 20.767 48.7111 16.9919 47.9794 13.283V13.2851ZM19.6043 31.4906V17.5113L32.3852 24.502L19.6043 31.4906Z" fill="white"/>
</svg>
